<?xml version="1.0" encoding="UTF-8" standalone="no"?>
<svg
   version="1.1"
   id="svg1"
   width="163.84"
   height="163.84"
   viewBox="0 0 163.84 163.84"
   style="background-color:#ffa3a9"
   sodipodi:docname="bike.svg"
   inkscape:export-filename="bike.png"
   inkscape:export-xdpi="96"
   inkscape:export-ydpi="96"
   inkscape:version="1.3.2 (091e20ef0f, 2023-11-25, custom)"
   xmlns:inkscape="http://www.inkscape.org/namespaces/inkscape"
   xmlns:sodipodi="http://sodipodi.sourceforge.net/DTD/sodipodi-0.dtd"
   xmlns="http://www.w3.org/2000/svg"
   xmlns:svg="http://www.w3.org/2000/svg">
  <defs
     id="defs1" />
  <sodipodi:namedview
     id="namedview1"
     pagecolor="#ffa3a9"
     bordercolor="#000000"
     borderopacity="0.25"
     inkscape:showpageshadow="2"
     inkscape:pageopacity="0.0"
     inkscape:pagecheckerboard="0"
     inkscape:deskcolor="#d1d1d1"
     inkscape:zoom="5.9040656"
     inkscape:cx="74.948354"
     inkscape:cy="90.615524"
     inkscape:window-width="2558"
     inkscape:window-height="1408"
     inkscape:window-x="0"
     inkscape:window-y="0"
     inkscape:window-maximized="0"
     inkscape:current-layer="g1"
     inkscape:export-bgcolor="#ffa3a9ff" />
  <g
     inkscape:groupmode="layer"
     inkscape:label="Image"
     id="g1">
    <path
       style="fill:#000000;stroke-width:0.9025"
       d="M 35.422384,124.42296 C 3.4188804,119.95317 0.71101698,75.259434 31.919062,66.600047 l 2.233086,-0.449292 5.037579,-0.165773 4.961,0.124573 2.4034,0.547747 c 5.14838,1.173341 4.920735,1.578164 8.773973,-6.038267 3.350638,-6.622974 3.398458,-6.864483 2.045135,-10.32876 -1.029819,-2.63616 -2.026301,-3.688397 -3.772319,-3.983385 -3.069976,-0.518669 -5.458389,-2.270314 -5.458389,-4.003144 0,-1.99782 1.055447,-2.236775 7.3644,-1.667316 2.06492,0.186384 5.18396,0.26002 6.9312,0.163634 3.483297,-0.192155 5.121675,0.141508 5.8059,1.182395 l 0.381459,0.580301 -0.355959,0.719299 c -0.378388,0.764617 -1.347552,1.060361 -5.523381,1.685478 -3.619449,0.541828 -4.297289,1.760708 -2.806991,5.047489 0.611388,1.34839 1.104839,2.013958 1.734577,2.339609 l 0.880111,0.455123 h 21.385542 21.385545 l 0.5776,-0.5776 c 0.78128,-0.781291 0.73877,-1.218646 -0.4332,-4.456277 -1.18051,-3.261194 -1.25427,-4.247201 -0.37875,-5.062872 l 0.63207,-0.588851 h 5.25296 5.25299 l 0.34633,0.417303 c 0.19049,0.229517 0.30387,0.716867 0.25196,1.083 l -0.0943,0.665697 -3.88578,0.081 -3.88577,0.08099 -0.51106,0.462494 c -0.98158,0.888324 -0.83674,1.49916 2.63702,11.120478 4.20997,11.660345 3.72708,11.059318 8.19799,10.20379 8.94697,-1.712041 18.71493,1.120038 25.40187,7.364896 19.66069,18.36092 6.75529,50.954744 -20.15667,50.907604 l -4.0432,-0.008 -2.80304,-0.73822 c -11.05601,-2.9109 -18.868719,-10.87576 -21.667355,-22.08848 l -0.627655,-2.514685 0.02237,-4.187603 0.02237,-4.1876 0.757837,-2.888 c 1.958329,-7.46288 6.759993,-13.888969 13.400183,-17.933528 1.1405,-0.694675 2.10966,-1.523888 2.34751,-2.00851 l 0.40508,-0.82538 -0.33777,-1.262921 c -0.18579,-0.694606 -0.62799,-1.870137 -0.98269,-2.612291 l -0.64491,-1.349234 h -0.91397 -0.91395 l -6.13084,8.663999 c -3.371963,4.7652 -7.371389,10.41846 -8.887607,12.5628 -1.516218,2.14434 -3.836866,5.415019 -5.156996,7.268175 l -2.400237,3.369375 v 1.133096 c 0,0.678162 0.34375,1.821003 0.856169,2.846444 2.556268,5.115543 0.339823,10.826113 -5.005659,12.896853 -4.971201,1.92574 -10.606937,-0.87546 -12.098577,-6.0135 l -0.41481,-1.42884 -0.865292,-0.0872 -0.865292,-0.0872 -0.916831,2.56306 c -4.416102,12.34552 -18.197133,20.65086 -31.24265,18.82885 z m 8.532543,-11.11923 c 7.199091,-1.86835 15.146155,-10.86248 12.200575,-13.808056 l -0.651024,-0.651024 -5.976619,-0.968205 -5.976618,-0.968207 -1.840116,0.621558 c -3.081824,1.04099 -4.467777,0.696922 -5.309729,-1.318149 l -0.416916,-0.997822 0.328666,-0.995867 c 0.221079,-0.669877 0.84153,-1.374742 1.895411,-2.15329 1.824011,-1.347476 2.325636,-2.090762 5.362927,-7.946556 3.605728,-6.951723 3.300958,-7.48931 -4.237357,-7.47431 l -4.0432,0.0081 -2.118233,0.765712 C 10.771747,85.515183 20.917381,119.2826 43.954927,113.30373 Z m 84.599813,0.009 c 1.10166,-0.23337 3.11604,-0.97316 4.4764,-1.64396 l 2.47339,-1.21965 2.31961,-2.32202 c 2.85945,-2.8624 4.23588,-5.45803 5.09473,-9.607393 l 0.40571,-2.770228 -0.17909,-2.507197 c -0.50506,-7.071226 -4.67233,-12.06341 -10.75178,-14.869184 -4.93973,-2.279767 -11.57028,-2.559435 -12.6544,-0.533748 l -0.39723,0.742233 1.23993,3.597674 c 2.43808,7.074032 2.916,8.137081 4.03741,8.980529 0.5725,0.430593 1.6538,0.664162 2.25633,1.241125 l 0.97558,1.640171 V 95.3525 c 0,3.271193 -3.94666,4.6774 -6.16837,2.1978 l -0.82557,-0.921396 -0.26005,-2.767531 0.65554,-2.507652 -1.91422,-5.311828 c -2.26141,-6.275292 -2.28266,-6.319072 -3.24455,-6.684782 l -0.74771,-0.284275 -1.13504,0.78659 c -16.423004,11.38115 -5.18557,37.590684 14.34338,33.453664 z M 80.343726,108.5235 c 7.547332,-2.03267 6.078221,-13.357437 -1.7328,-13.357437 -7.564531,0 -9.340868,10.721187 -2.199191,13.273337 1.294449,0.46259 2.435987,0.48699 3.931991,0.0841 z m -9.6748,-11.468817 c 0,-0.127133 0.679337,-0.993348 1.509637,-1.924924 l 1.509636,-1.693774 -0.0098,-1.035276 C 73.672258,91.748977 71.519113,85.9555 67.8733,76.780584 64.68585,68.759164 61.849617,61.580719 61.570562,60.828483 60.973482,59.21897 60.544629,58.796524 59.638224,58.925015 l -0.665695,0.09437 -2.272989,4.332 c -1.480961,2.822503 -2.280994,4.67706 -2.29596,5.322266 l -0.02297,0.990267 1.099131,0.886933 c 3.702144,2.987407 4.831497,4.029294 6.421764,5.924408 4.027525,4.799588 6.740554,12.188795 6.744663,18.369765 6.46e-4,0.97235 0.154859,1.900937 0.347721,2.0938 0.386899,0.386898 1.67504,0.475651 1.67504,0.115409 z m -13.637859,-0.796025 0.64186,-0.449577 v -1.800146 c 0,-4.095462 -1.893022,-8.398209 -5.195296,-11.808653 l -2.171322,-2.242448 h -0.892731 c -2.281717,0 -7.958601,11.854859 -6.603402,13.789678 0.97924,1.398062 12.823932,3.489614 14.220891,2.511146 z m 26.550036,-3.740697 c 0.342263,-0.239732 2.106442,-2.546521 3.920398,-5.1262 1.813955,-2.579679 5.416186,-7.679407 8.004956,-11.332727 C 109.89041,55.759259 108.96863,57.290702 107.58087,55.997808 l -0.63206,-0.58885 H 85.49892 64.049028 l -0.588851,0.632056 c -0.813886,0.873604 -0.881565,0.6028 1.984624,7.941089 7.096614,18.169425 10.781771,27.141872 11.405788,27.77027 1.047878,1.055237 5.580483,1.570224 6.730514,0.76471 z"
       id="path1"
       sodipodi:nodetypes="cscccsssssssscsssscccssscccsscccssssccsscccssscsccccssscsssscccsccsscccsscsssscsscscsscssscssccsscccsscsccssssssscsssscsscssssssscsscssssssscccssss" />
  </g>
</svg>
